<svg id="437a9dcc-0cc3-4b8b-ba5a-e038bf59e5ab" data-name="Layer 1" xmlns="http://www.w3.org/2000/svg" viewBox="0 0 1960.6 308.8"><title>Groupon_Logo_white</title><path d="M1013.4,371.9c66.2,0,110.3-42.9,110.3-115.3V71.4h-72.4V253.7c0,33.7-12.1,50.4-37.5,50.4-24.5,0-35-17.1-35-50.4V71.4H906V256.6C906.1,330.6,946.4,371.9,1013.4,371.9Z" transform="translate(-37.2 -64.3)" fill="#fff"/><path d="M1317.7,87.6c-20-14.1-43.7-16.2-74.9-16.2h-98.2V367.3H1217V272h20.8c30.8,0,54.1-2.1,72.9-13.3,29.5-17.9,47-49.5,47-87.8C1357.7,133.8,1344,105.9,1317.7,87.6Zm-86.5,120.3h-13.3V137.6H1237c32.1,0,47.5,10,47.5,34.5C1284.4,198.7,1267,207.9,1231.2,207.9Z" transform="translate(-37.2 -64.3)" fill="#fff"/><polygon points="1720.9 138.2 1831.2 303 1894.8 303 1894.8 7.1 1822.5 7.1 1822.5 171.5 1713.8 7.1 1648.5 7.1 1648.5 303 1720.9 303 1720.9 138.2" fill="#fff"/><path d="M841.5,109.7C812.8,81.4,775.4,66,735.8,66c-42,0-78.7,14.6-107.8,43.3s-45,66.2-45,107c0,43.7,14.2,80.3,42,109.9,29.1,30.8,66.6,46.6,110.3,46.6,41.2,0,80.3-16.2,109-46.2,27.9-28.7,42.9-66.6,42.9-109C887.3,177.1,871.5,139.2,841.5,109.7ZM735.4,299.5c-40.8,0-77.8-35.8-77.8-82.4,0-43.3,34.5-77.8,78.7-77.8,41.6,0,76.2,34.5,76.2,77.8C812.4,265.3,777.9,299.5,735.4,299.5Z" transform="translate(-37.2 -64.3)" fill="#fff"/><path d="M1625.7,109.7C1597,81.4,1559.5,66,1520,66c-42.1,0-78.7,14.6-107.8,43.3s-45,66.2-45,107c0,43.7,14.2,80.3,42,109.9,29.2,30.8,66.6,46.6,110.3,46.6,41.2,0,80.3-16.2,109-46.2,27.9-28.7,42.9-66.6,42.9-109C1671.5,177.1,1655.7,139.2,1625.7,109.7ZM1519.6,299.5c-40.8,0-77.8-35.8-77.8-82.4,0-43.3,34.6-77.8,78.7-77.8,41.6,0,76.2,34.5,76.2,77.8C1596.6,265.3,1562,299.5,1519.6,299.5Z" transform="translate(-37.2 -64.3)" fill="#fff"/><path d="M79.1,326.1c29.1,30.8,66.2,47,109.9,47a153.39,153.39,0,0,0,126.1-66.2c17.1-25,25.4-53.3,25.4-86.6,0-6.2-.4-12.9-.8-19.6H171.1v59.1h84.5c-14.6,25.8-39.1,40-66.6,40-40.8,0-77.4-36.2-77.4-83.3,0-42.5,34.1-77.8,77.4-77.8,23.3,0,42.4,9.6,60.8,28.7h82.4c-23.7-63.3-79.1-102-142.3-102-42,0-78.6,15-107.8,43.7s-44.9,66.2-44.9,107C37.1,259.9,51.2,296.5,79.1,326.1Z" transform="translate(-37.2 -64.3)" fill="#fff"/><path d="M504.8,265.7c42-11.7,67-47.4,67-95.3,0-36.6-13.7-64.5-40-82.8-20-14.1-43.7-16.2-74.9-16.2H358.7V367.3h72.4V272l56.6,95.3h89.5Zm-59.5-57.8H431.2V137.6h20c32,0,47.4,10,47.4,34.5C498.6,198.7,481.1,207.9,445.3,207.9Z" transform="translate(-37.2 -64.3)" fill="#fff"/><path d="M1975.5,108.9a21.29,21.29,0,0,0,15.8-6.6,22.33,22.33,0,0,0,0-31.5,22.33,22.33,0,0,0-31.5,0,21.29,21.29,0,0,0-6.5,15.7,21.58,21.58,0,0,0,6.5,15.8A21.07,21.07,0,0,0,1975.5,108.9Zm-13.5-36a19.2,19.2,0,0,1,32.8,13.6,19,19,0,0,1-5.6,13.7,19.07,19.07,0,0,1-27.2,0,18.87,18.87,0,0,1-5.6-13.7A18.42,18.42,0,0,1,1962,72.9Z" transform="translate(-37.2 -64.3)" fill="#fff"/><path d="M1985.4,98.3a3.09,3.09,0,0,1-.2-1.3c0-.6-.1-1.3-.1-1.8V93.4a6.68,6.68,0,0,0-1.3-3.8,6,6,0,0,0-4.2-2.4,7.57,7.57,0,0,0,3.5-1.2,5.35,5.35,0,0,0,2.4-4.8c0-3.1-1.3-5.2-3.8-6.2a18.13,18.13,0,0,0-6.7-.9h-8.6V98.6h4.3V89h3.4a10.62,10.62,0,0,1,4.8.8c1.6.9,2.3,2.8,2.3,5.6v1.9l.1.8v.3c0,.1,0,.2.1.2h4Zm-6.5-12.9a11.07,11.07,0,0,1-4.1.5h-3.9V77h3.7a11.26,11.26,0,0,1,5.2.9c1.1.6,1.6,1.8,1.6,3.6A3.79,3.79,0,0,1,1978.9,85.4Z" transform="translate(-37.2 -64.3)" fill="#fff"/></svg>