<svg id="0cc1e5a9-9f64-49d5-bb84-5cd672eea433" data-name="Layer 1" xmlns="http://www.w3.org/2000/svg" viewBox="0 0 192 96.5"><title>yelp</title><path d="M125.54,22.83q-.18-.34-.33-.69a6.47,6.47,0,0,1,.42-6A8.82,8.82,0,0,1,129.06,13c.41-.22.8-.41,1.16-.56l.21-.07c1.89-.69,3.59-1.24,5.25-1.69A54.28,54.28,0,0,1,141,9.48l.63-.06a8.11,8.11,0,0,1,5.83,1.78,6.7,6.7,0,0,1,2.37,5.1c.5,5.62.84,11.2,1.15,16.63l3.3-4.54.57-.66c.11-.1.27-.24.48-.4v0a6.7,6.7,0,0,1,5-1.34,7.56,7.56,0,0,1,4.47,2.27l.42.47a32.06,32.06,0,0,1,3.49,4.64,23.25,23.25,0,0,1,2.59,5.33h0c.09.28.14.5.18.65v0a7,7,0,0,1-.79,5.07,6.79,6.79,0,0,1-3.83,3l-.5.13h0l-3.62.91,4.3,1.47h0a6.42,6.42,0,0,1,.62.23A6.61,6.61,0,0,1,171.34,54a7.39,7.39,0,0,1,.14,4.89q-.15.49-.27.78h0a24.1,24.1,0,0,1-2.87,5,26.15,26.15,0,0,1-3.72,4.13l-.44.41A7.7,7.7,0,0,1,159.44,71a6.9,6.9,0,0,1-5-1.79c-.14-.13-.28-.28-.44-.46l-.51-.68-2.42-4v4.74l-.05.86a6,6,0,0,1-.15.62,6.75,6.75,0,0,1-3.3,4.06,7.5,7.5,0,0,1-4.91.79h0L142.1,75a32.42,32.42,0,0,1-5.65-1.71,28.76,28.76,0,0,1-3.52-1.68h-4.74a6.24,6.24,0,0,1-1.32.77,5.74,5.74,0,0,1-2.16.43,5.62,5.62,0,0,1-2.18-.44,5.92,5.92,0,0,1-1.28-.76H120c-2.41,2.5-6.07,4.18-11.59,4l-.37,0v.89a7.41,7.41,0,0,1-5.13,7.25,8.53,8.53,0,0,1-5.92,0,7.41,7.41,0,0,1-5.13-7.25V73.37a8.23,8.23,0,0,1-3,1.88,8.53,8.53,0,0,1-5.92,0A7.46,7.46,0,0,1,78,70.41a14.25,14.25,0,0,1-5.36,3.92,20.51,20.51,0,0,1-8,1.51c-7.23.07-11.36-3.3-13.7-7.59a17.9,17.9,0,0,1-1.33-3.15l-2.74,8.84a12.63,12.63,0,0,1-4.83,7,13.37,13.37,0,0,1-8.22,2.14,12.56,12.56,0,0,1-3.12-.43,8.37,8.37,0,0,1-4.64-3.16,7.76,7.76,0,0,1-1.45-4.75,8.51,8.51,0,0,1,.3-2.06,7.74,7.74,0,0,1,3.19-4.44,7.93,7.93,0,0,1,2.15-1L21.82,49.87a8.22,8.22,0,0,1-.37-.89,8.37,8.37,0,0,1,.08-6.18,8.28,8.28,0,0,1,4-4.27,8.15,8.15,0,0,1,.77-.32,8.69,8.69,0,0,1,5.53-.29,7.4,7.4,0,0,1,4.61,3.88l2,4,.92-3a4.73,4.73,0,0,1,.25-.66c.06-.14.11-.27.17-.4a7.48,7.48,0,0,1,4.68-4,8.74,8.74,0,0,1,5.09,0,4,4,0,0,1,.61.23,5.55,5.55,0,0,1,.56.24,8.6,8.6,0,0,1,3.49,2.95c2.62-2.3,6.1-3.59,10.58-3.75.37,0,.77,0,1.19,0,5.05.1,8.77,2,11.33,5.2q.2.24.36.48V36.16a7.42,7.42,0,0,1,5.17-7.25,8.53,8.53,0,0,1,5.92,0,7.42,7.42,0,0,1,5.17,7.25v3.13a7.92,7.92,0,0,1,2.43-1.65,8.44,8.44,0,0,1,6.27-.23A8.9,8.9,0,0,1,104,38a15.14,15.14,0,0,1,5-1,15.56,15.56,0,0,1,7,1.47,13.88,13.88,0,0,1,4.55,3.4l.09-.43c0-.14.06-.29.1-.46a7.49,7.49,0,0,1,2.79-4.35h0a7,7,0,0,1,5-1.39h0a5.1,5.1,0,0,1,.65.12l.74.23,4.82,1.94c-3.18-5-6.31-9.9-9.08-14.59Z" fill="#1d1816" fill-rule="evenodd"/><path d="M125.81,22.11c-.12-.22-.23-.46-.33-.69a6.47,6.47,0,0,1,.42-6,8.82,8.82,0,0,1,3.43-3.21c.41-.22.8-.41,1.16-.56l.21-.07c1.89-.69,3.59-1.24,5.25-1.69a54.28,54.28,0,0,1,5.31-1.15l.63,0a8.06,8.06,0,0,1,5.83,1.77,6.7,6.7,0,0,1,2.37,5.1c.5,5.62.85,11.2,1.15,16.63l3.31-4.54.56-.66c.11-.1.27-.24.48-.4v0a6.7,6.7,0,0,1,5-1.34,7.61,7.61,0,0,1,4.47,2.27l.42.47A32.06,32.06,0,0,1,169,32.63,23.25,23.25,0,0,1,171.58,38h0c.09.28.14.5.18.65v0A7,7,0,0,1,171,43.7a6.85,6.85,0,0,1-3.83,3c-.12,0-.29.08-.5.12h0l-3.62.91,4.3,1.47h0a6.42,6.42,0,0,1,.62.23,6.65,6.65,0,0,1,3.68,3.77,8.05,8.05,0,0,1-.14,5.67h0a24.1,24.1,0,0,1-2.87,5A26.15,26.15,0,0,1,164.89,68l-.44.41a7.7,7.7,0,0,1-4.74,1.88,6.9,6.9,0,0,1-5-1.79c-.13-.13-.28-.28-.44-.46l-.51-.68-2.42-4V68.1l-.06.86a6,6,0,0,1-.15.62,6.75,6.75,0,0,1-3.3,4.06,7.5,7.5,0,0,1-4.91.79h0l-.55-.12a32.42,32.42,0,0,1-5.65-1.71,29.48,29.48,0,0,1-3.52-1.68h-4.74a5.84,5.84,0,0,1-1.32.77,5.74,5.74,0,0,1-2.16.43,5.62,5.62,0,0,1-2.18-.44,5.92,5.92,0,0,1-1.28-.76h-1.3c-2.41,2.5-6.07,4.18-11.59,4l-.37,0v.89a7.4,7.4,0,0,1-5.13,7.25,8.38,8.38,0,0,1-5.92,0,7.41,7.41,0,0,1-5.13-7.25V72.65a8.23,8.23,0,0,1-3,1.88,8.53,8.53,0,0,1-5.92,0,7.46,7.46,0,0,1-4.82-4.84,14.25,14.25,0,0,1-5.36,3.92,20.68,20.68,0,0,1-8,1.52c-7.23.06-11.36-3.31-13.7-7.6a17.9,17.9,0,0,1-1.33-3.15L47.2,73.22a12.63,12.63,0,0,1-4.83,7,13.37,13.37,0,0,1-8.22,2.14A12.56,12.56,0,0,1,31,82a8.37,8.37,0,0,1-4.64-3.16,7.76,7.76,0,0,1-1.45-4.75,8.51,8.51,0,0,1,.3-2.06,7.74,7.74,0,0,1,3.19-4.44,7.93,7.93,0,0,1,2.15-1L22.09,49.15a8.22,8.22,0,0,1-.37-.89,8.37,8.37,0,0,1,.08-6.18,8.28,8.28,0,0,1,4-4.27,8.15,8.15,0,0,1,.77-.32,8.76,8.76,0,0,1,5.53-.29,7.41,7.41,0,0,1,4.61,3.88l2,4,.92-3a4.73,4.73,0,0,1,.25-.66c.06-.14.11-.27.17-.4a7.48,7.48,0,0,1,4.68-4.05,8.82,8.82,0,0,1,5.09,0,4,4,0,0,1,.61.23,4.72,4.72,0,0,1,.56.24,8.6,8.6,0,0,1,3.49,2.95c2.62-2.3,6.1-3.59,10.58-3.75.37,0,.77,0,1.19,0,5,.1,8.77,2,11.33,5.2l.37.48V35.44a7.41,7.41,0,0,1,5.16-7.25,8.53,8.53,0,0,1,5.92,0,7.42,7.42,0,0,1,5.17,7.25v3.13a8,8,0,0,1,2.43-1.65,8.44,8.44,0,0,1,6.27-.23,8.9,8.9,0,0,1,1.33.61,15.14,15.14,0,0,1,5-1,15.56,15.56,0,0,1,7,1.47,13.88,13.88,0,0,1,4.55,3.4l.09-.43c0-.14.06-.29.1-.45a7.49,7.49,0,0,1,2.79-4.36h0a7,7,0,0,1,5-1.39h0a5.31,5.31,0,0,1,.64.12l.74.23L135,36.84c-3.18-5-6.31-9.9-9.08-14.59Z" fill="#fff" fill-rule="evenodd"/><path d="M130.19,19.71c-.72-1.31.27-2.62,2.21-3.43a52.65,52.65,0,0,1,9.68-2.6c2.35-.09,3,.92,3,2.16.64,7.17,1,14.7,1.43,21.86.09,2.83-2.74,3.66-4.33,1.25-4.1-6.45-8.19-12.72-12-19.24ZM128.3,39.53a2.26,2.26,0,0,0-2.48,2.16,25.81,25.81,0,0,0-.17,9.57,2,2,0,0,0,2.68,1.59l11.55-3.57a2.64,2.64,0,0,0-.06-5.11L128.3,39.53ZM146.36,68.1a2.18,2.18,0,0,1-2.91,1.34,25.75,25.75,0,0,1-8.89-3.56,1.92,1.92,0,0,1-.48-3L142,53.55c1.9-2.25,4.71-1.23,4.41,2.06V68.1ZM158,64.81a2.38,2.38,0,0,0,3.36-.35A22,22,0,0,0,166.88,57c.59-1.42,0-2.67-1-3l-11.57-4c-2.57-.94-4.41,1.8-2.72,4L158,64.81Zm.53-34.21a2.16,2.16,0,0,1,3.13.63,26,26,0,0,1,5.1,8.11A1.93,1.93,0,0,1,165.43,42l-11.8,3c-2.64.7-4.3-2.25-2.42-4.33Z" fill="#c21f25" fill-rule="evenodd"/><path d="M89.21,35.44V67.28C89.21,71,83,71,83,67.28V35.44C83,31.73,89.21,31.73,89.21,35.44Z" fill="#090705" fill-rule="evenodd"/><path d="M50.65,45.23,42.44,71.76c-1.26,4.06-3.75,5.76-8.17,5.65-4.05-.09-4.68-2.48-4.23-4a3.15,3.15,0,0,1,3.35-2.25c2.51,0,2.91,0,3.53-1.94a8.22,8.22,0,0,0-1.09-3.26L26.58,47a3.35,3.35,0,0,1,1.7-4.8c1.63-.59,3.17-.38,4,1.18l7.66,15,4.52-14.94c.61-2,2.89-2.31,4.48-1.57A2.78,2.78,0,0,1,50.65,45.23Z" fill="#090705" fill-rule="evenodd"/><path d="M119.83,54.49c.07,2.84.84,15.84-11,15.46a8.71,8.71,0,0,1-5.17-2.22,9.36,9.36,0,0,0-.36,2.6V75.8c0,3.72-6.18,3.72-6.18,0V44c0-3.63,5.71-3.71,6-.23a16.23,16.23,0,0,1,1.81-1.2,10.2,10.2,0,0,1,9.3-.24c5.19,2.47,5.69,8.1,5.69,12.2Zm-12,8c1.52,1.91,5.4,1.93,6.94,0,2.11-2.69,1.84-10.88.2-13.85-1.25-2.27-5.85-2.15-7.2,0C105.91,51.54,105.64,59.84,107.79,62.54Z" fill="#090705" fill-rule="evenodd"/><path d="M76.27,54.79c0,.57.22,3.15-1.4,3.41l-13.06,0c-1.13,0-1.46.43-1.3,1.48a6.84,6.84,0,0,0,1.21,3c1.52,1.91,4.68,2.15,7.45.54,1.46-1.2,2.23-2,3-2.27,1.78-.59,3.31,1.06,3.34,2.76A4.55,4.55,0,0,1,75,65.81c-1.82,2.59-5,4.29-10.07,4.34-9.93.09-11.11-8.88-11.17-13.66-.11-9.19,3.07-14.63,11.48-14.93,8-.3,11.19,5.23,11,13.23ZM69.76,53c-.21-2.91-1.1-5.89-5.42-5.79-3.41.08-5.28,2.33-5.58,5.38.06.67.22.69,1.06.66h9.29C69.57,53.28,69.72,53.27,69.76,53Z" fill="#090705" fill-rule="evenodd"/><path d="M124.69,65.67v.62H125a.62.62,0,0,0,.34-.07.25.25,0,0,0,.11-.23.28.28,0,0,0-.11-.24.69.69,0,0,0-.36-.08Zm-.42-.26H125a1.21,1.21,0,0,1,.63.13.44.44,0,0,1,.21.4.56.56,0,0,1-.12.36.53.53,0,0,1-.32.18l.44.89h-.48l-.39-.82h-.3v.82h-.42v-2Zm.71-.48a1.52,1.52,0,0,1,1.39.93,1.63,1.63,0,0,1,.1.59,1.42,1.42,0,0,1-.43,1,1.47,1.47,0,0,1-.5.32,1.43,1.43,0,0,1-.58.12,1.33,1.33,0,0,1-.55-.12,1.76,1.76,0,0,1-.49-.33,1.47,1.47,0,0,1-.43-1,1.46,1.46,0,0,1,.12-.57,1.76,1.76,0,0,1,.33-.49,1.39,1.39,0,0,1,.48-.32,1.47,1.47,0,0,1,.56-.11Zm0-.26a1.72,1.72,0,0,1,.68.13,1.74,1.74,0,0,1,.58.39,1.88,1.88,0,0,1,.37.56,1.82,1.82,0,0,1,0,1.35,1.67,1.67,0,0,1-.39.56,1.81,1.81,0,0,1-.57.39,2,2,0,0,1-.67.13,1.71,1.71,0,0,1-.67-.14,1.81,1.81,0,0,1-.57-.39,1.78,1.78,0,0,1-.38-.57,1.65,1.65,0,0,1-.13-.66,1.55,1.55,0,0,1,.14-.67,1.74,1.74,0,0,1,.39-.58,1.7,1.7,0,0,1,.55-.38A1.85,1.85,0,0,1,125,64.67Z" fill="#090705" fill-rule="evenodd"/></svg>