<svg id="Capa_1" data-name="Capa 1" xmlns="http://www.w3.org/2000/svg" viewBox="0 0 328.04 303.74"><defs><style>.cls-1{fill:none;}.cls-2{fill:#c80000;}</style></defs><title>Símbolo - Contracción - Fondo blanco</title><rect class="cls-1" width="328.04" height="303.74"/><path class="cls-2" d="M184.19,101.25l-14.4,44.25a185.19,185.19,0,0,0-5.7,22.2h-.3a182.3,182.3,0,0,0-5.4-22l-14.1-44.4h0L126.44,45,101.25,202.49H124.8l5.1-39.6c1.05-8.4,2.1-16.2,3-25.65H133a192.42,192.42,0,0,0,6.6,27.45l23.55,74.19,23.4-77.79h0c2.55-8.7,4.35-16.35,5.85-23.85h.3c.75,7.8,1.65,15.3,3,23.55l6.45,41.7h24.6l-16.2-101.25Z"/></svg>